<?xml version="1.0" encoding="UTF-8"?>
<svg id="Layer_1" data-name="Layer 1" xmlns="http://www.w3.org/2000/svg" viewBox="0 0 1280 1280">
  <defs>
    <style>
      .cls-1 {
        fill: none;
        stroke: #000;
        stroke-miterlimit: 10;
        stroke-width: 56px;
      }
    </style>
  </defs>
  <path class="cls-1" d="M704,727.55c0-26.4,19.32-57.66,42.93-69.47l266.13-133.07c23.61-11.81,42.93,.13,42.93,26.53v300.89c0,26.4-19.32,57.66-42.93,69.47l-266.13,133.07c-23.61,11.81-42.93-.13-42.93-26.53v-300.89Z"/>
  <path class="cls-1" d="M266.93,921.91c-23.61-11.81-42.93-43.07-42.93-69.47v-300.89c0-26.4,19.32-38.34,42.93-26.53l266.13,133.07c23.61,11.81,42.93,43.07,42.93,69.47v300.89c0,26.4-19.32,38.34-42.93,26.53l-266.13-133.07Z"/>
  <path class="cls-1" d="M310.26,405.47c-23.61-11.81-23.61-31.13,0-42.93l286.8-143.4c23.61-11.81,62.25-11.81,85.86,0l286.8,143.4c23.61,11.81,23.61,31.13,0,42.93l-286.8,143.4c-23.61,11.81-62.25,11.81-85.86,0l-286.8-143.4Z"/>
</svg>